# xmcd CD database file
#
# Track frame offsets:
#	182
#	16057
#	28932
#	40420
#	52975
#	70330
#	83515
#	97022
#	113322
#	124897
#
# Disc length: 1814 seconds
#
# Revision: 0
# Processed by: cddbd v1.5.2PL0 Copyright (c) Steve Scherf et al.
# Submitted via: CDex 1.72
#
DISCID=7707140a
DTITLE=Pilgrim, Derek [CDN-Makin' Progress-cty) - Makin' Progress
DYEAR=1900
DGENRE=Country
TTITLE0=Hank and Lefty (Where's Country Gone)
TTITLE1=She Still Means The Whole World To Me
TTITLE2=Simple Uncomplicated Thing
TTITLE3=Don't Give Me A World Without Love
TTITLE4=You're My Woman, You're My Lady
TTITLE5=When The Plane Touches Down In Deer Lake
TTITLE6=Lifetime Fishin' For Cod
TTITLE7=I'm Going Home This Mother's Day
TTITLE8=Where Did Ole Yesterday Go
TTITLE9=Canadian Whiskey And Nashville Music
EXTD=
EXTT0=
EXTT1=
EXTT2=
EXTT3=
EXTT4=
EXTT5=
EXTT6=
EXTT7=
EXTT8=
EXTT9=
PLAYORDER=
